PathFileType	3	(X/Y/Z)	D:\Jess\PFP\Labelled\PA23\20251014\SRRun01.trc
DataRate	CameraRate	NumFrames	NumMarkers	Units	OrigDataRate	OrigDataStartFrame	OrigNumFrames
250.0	250.0	4	37	mm	250.0	36875	2501
Frame#	Time	C7			T10			CLAV			LSHO			RSHO			LASIS			RASIS			LPSIS			RPSIS			LILCR			RILCR			LGTR			LTHI			LLTHI			LLEP			LMEP			LPSH			LLSH			LDSH			LLMAL			LMMAL			LTOE			L5TH			LHEE			RGTR			RTHI			RLTHI			RLEP			RMEP			RPSH			RLSH			RDSH			RLMAL			RMMAL			RTOE			R5TH			RHEE			
		X1	Y1	Z1	X2	Y2	Z2	X3	Y3	Z3	X4	Y4	Z4	X5	Y5	Z5	X6	Y6	Z6	X7	Y7	Z7	X8	Y8	Z8	X9	Y9	Z9	X10	Y10	Z10	X11	Y11	Z11	X12	Y12	Z12	X13	Y13	Z13	X14	Y14	Z14	X15	Y15	Z15	X16	Y16	Z16	X17	Y17	Z17	X18	Y18	Z18	X19	Y19	Z19	X20	Y20	Z20	X21	Y21	Z21	X22	Y22	Z22	X23	Y23	Z23	X24	Y24	Z24	X25	Y25	Z25	X26	Y26	Z26	X27	Y27	Z27	X28	Y28	Z28	X29	Y29	Z29	X30	Y30	Z30	X31	Y31	Z31	X32	Y32	Z32	X33	Y33	Z33	X34	Y34	Z34	X35	Y35	Z35	X36	Y36	Z36	X37	Y37	Z37	

1876	147.496	847.9919319720321	1628.745813159964	-862.6185446629337	816.0408255222595	1373.979112787327	-791.7213460633959	848.6076805465649	1503.511469603784	-1023.962917078536	663.8639084637576	1603.71598570619	-946.2147340833376	1013.582970671192	1578.771910822678	-907.7779761408509	705.1836213157342	1078.555864791129	-989.0208146855288	967.4973645127432	1104.500077478677	-976.8828622485573	793.2990581829735	1115.526636585132	-803.4484246926561	846.0451806932518	1117.60181818996	-796.4427730285458	673.0093084001719	1166.183181969134	-922.3696619910436	994.7700747591712	1174.443323524193	-893.086431386639	660.25160602675	922.2176904745261	-916.9512299428977	701.5245996524649	764.4882985647567	-1031.578994770177	644.9687365314522	630.4574635040859	-939.556272623002	648.0582562294186	525.7365215411631	-922.7249327607095	nan	nan	nan	679.770937558479	433.2788564707641	-847.1171849911977	636.3273278505958	526.9590083834443	-726.1380328391352	684.0309074898763	457.2823260151126	-604.5004972706586	657.6712850913177	521.7260122849061	-464.4088394488157	nan	nan	nan	615.511910894624	364.5589418065291	-387.9819398226915	593.7366658911674	427.4442197823742	-368.5052369447006	737.2048800425148	577.6994122894986	-438.60514990167	1023.968827882491	954.6635739060296	-916.3308015763664	932.8416557817902	831.2441316124969	-1082.051206685449	956.4128483036975	693.9355022944811	-1028.402786585605	912.6217485065453	555.4197928987966	-1074.008191724724	nan	nan	nan	841.8567176690337	440.7042705028171	-1095.72303662707	899.3332064947382	330.4960629443374	-978.6069432771997	817.0658049375312	223.8934767964622	-978.1421293050784	848.5194950127968	118.2068811666633	-881.5428143208442	nan	nan	nan	823.5676120459223	70.23367842570855	-1040.553949549227	875.7945862848497	46.92654265227085	-994.8580716539761	802.3860089488539	77.8878060261643	-787.3789675335995	
1877	147.5	848.5218771454621	1627.90543199247	-862.765881920167	816.595894438148	1373.392200267896	-791.1532584973538	848.0793164405261	1502.187559303572	-1023.791323798488	663.9368580635829	1602.927415707216	-945.2474987374264	1013.818400950188	1577.577197621863	-908.6817369624774	705.0152585731087	1077.452074831164	-987.8300854877139	967.5815972036476	1103.188297873647	-975.8188553251748	793.1673569083379	1114.892779734477	-802.4288740758113	845.8386554755386	1116.984639466456	-795.4857308033244	672.8046211732285	1165.196775616247	-920.2775858376058	994.642195748015	1173.407192081106	-891.1524582875439	659.6734571849171	921.3755877330093	-916.1042762560221	700.8438929006759	764.956047166169	-1034.587753071908	643.5843812332546	630.6040835302199	-945.2550653238083	646.792299503226	525.3416147631114	-930.9335806841652	nan	nan	nan	678.8112939891965	432.8021290416114	-855.9495416656553	635.5773563962118	526.1421952160414	-734.9564917810363	683.8843737343223	456.2022858493318	-613.4229072062201	657.8009178425223	520.1462973465398	-472.8683828872869	nan	nan	nan	615.7508273949519	362.228859685373	-397.9592378448934	593.7332266525805	424.8846724411862	-378.0704052068459	737.086651629846	576.0606651447223	-446.282449196401	1023.888343697797	953.5392124267631	-914.3085785496014	933.0094966575441	827.997067536632	-1079.017426385028	955.9990574300919	691.277646497186	-1024.488943506331	912.3706346327072	551.9718705810145	-1067.783161748868	nan	nan	nan	841.7668541141438	437.2249189863143	-1088.216643406128	898.8714041062475	328.3072857829463	-969.9927096525	816.7873010956627	222.2858844213057	-967.7030654201882	848.4607323118573	118.1745532871986	-869.832445012375	nan	nan	nan	823.5788443187622	70.16194083409493	-1028.483941655222	875.8095786448979	46.85353157196129	-982.8210124041349	802.3558914324861	78.00828841217329	-775.4215503809237	
1878	147.504	849.0634298957451	1627.304338104095	-862.910135182109	817.1699568048135	1373.042046745843	-790.6445810269427	847.5300038473324	1501.202318081914	-1023.629415660539	664.0332728870353	1602.455201002779	-944.2204787320482	1014.015575315273	1576.696844126151	-909.6434954760347	704.7625941482145	1076.781003821533	-986.6405080302659	967.5484602003986	1102.12786251838	-974.8489895018013	793.1440122107456	1114.619282966458	-801.4497769357007	845.7642812551271	1116.708942602157	-794.5750523845014	672.6484344844506	1164.68169170138	-918.2141667523647	994.459749578884	1172.845879890468	-889.4834959882015	659.0364255501228	920.9413838677576	-915.0789791746579	700.2178045558124	765.7647373591744	-1037.542663581983	642.3371881559574	631.1814978057212	-950.9890778077048	645.7103169541347	525.3499133008204	-939.1991687826583	nan	nan	nan	678.1103039987159	432.6381383048667	-864.8995610926053	634.9075248326767	525.345809985366	-743.8017582522288	683.8602408243036	455.032143188792	-622.4088677171096	657.9375951341956	518.2187259934283	-481.2910307351949	nan	nan	nan	616.1746109717056	359.4179155950158	-408.1931023602357	593.8899196098949	421.78797622164	-387.6977875350877	736.9203458847742	574.1150316832616	-453.8692080434678	1023.761205738407	952.6232501886361	-912.321934698881	932.9954310361478	824.8612361095288	-1075.792355722902	955.5982741441561	688.7361352300303	-1020.291106282673	912.1495269284745	548.4524728982846	-1061.067507432257	nan	nan	nan	841.7556858694986	433.7151930725165	-1080.296666945508	898.4425433499317	326.1293284717954	-961.0352660240811	816.5520000252463	220.6984321418568	-957.0822600559355	848.4220145569966	118.1004678466705	-858.0566790711199	nan	nan	nan	823.5942110996303	70.04410260618272	-1016.383886634558	875.8187132767304	46.72171943289582	-970.7521018234544	802.3280346272612	78.0962899999822	-763.4224194724105	
1879	147.508	849.6177370997193	1626.946094818476	-863.0540313141059	817.7635089146645	1372.924177268879	-790.2010208767593	846.9596048781076	1500.552193083079	-1023.481881600874	664.1447732499954	1602.291940474821	-943.1353808328246	1014.18013930827	1576.133083912502	-910.6649013374999	704.43323862156	1076.52837955932	-985.4617224101761	967.4077815690968	1101.307507456981	-973.9779237849488	793.225769634109	1114.685037640428	-800.5146054428056	845.8178469461457	1116.754067822512	-793.7142298819604	672.5390946244614	1164.607953712898	-916.2111159315799	994.2350714439689	1172.730404288804	-888.103521609857	658.3508358240805	920.8994278389716	-913.897899398847	699.6301991304915	766.9308057466453	-1040.438134087146	641.2366921240751	632.1867150861194	-956.7356145488219	644.8117405471331	525.7755018765735	-947.4918677014082	nan	nan	nan	677.6667184052536	432.8006405214505	-873.9465367086938	634.3207765936131	524.582206115153	-752.643908457815	683.9538242468871	453.7774975729174	-631.4391092442079	658.0791718903014	515.9424679909421	-489.6665602832693	nan	nan	nan	616.7772147466117	356.137872363599	-418.674227904012	594.2033834455866	418.161095367976	-397.3831105383082	736.7065821638645	571.8537274128556	-461.352890426156	1023.588505455368	951.9076025911008	-910.3753097190851	932.8011033894295	821.8534715252429	-1072.383122084378	955.2094225220623	686.337521379972	-1015.816697704933	911.9468140073508	544.9249891474386	-1053.900291839878	nan	nan	nan	841.8059785359051	430.2268756709544	-1071.995194464146	898.0487523337323	324.0119838042104	-951.7556340558896	816.3555034777842	219.1579609418281	-946.2972494960779	848.4012897490529	117.9983566247163	-846.2205466032648	nan	nan	nan	823.6099979084981	69.88093064034355	-1004.257325508596	875.8223219895887	46.54134749708155	-958.6513532232058	802.3037185138485	78.16363628468643	-751.384046621865	
